<svg width="1007" height="300" viewBox="0 0 1007 300" fill="none" xmlns="http://www.w3.org/2000/svg">
<path d="M460.548 119.378C459.98 113.649 457.542 109.198 453.233 106.026C448.924 102.853 443.077 101.267 435.69 101.267C430.671 101.267 426.434 101.977 422.977 103.398C419.521 104.771 416.869 106.688 415.023 109.151C413.223 111.613 412.324 114.406 412.324 117.531C412.229 120.135 412.774 122.408 413.957 124.349C415.188 126.291 416.869 127.972 419 129.392C421.131 130.765 423.593 131.973 426.386 133.014C429.18 134.009 432.163 134.861 435.335 135.571L448.403 138.696C454.748 140.116 460.572 142.01 465.875 144.378C471.178 146.745 475.771 149.657 479.653 153.114C483.536 156.57 486.543 160.642 488.673 165.33C490.851 170.017 491.964 175.391 492.011 181.452C491.964 190.353 489.691 198.071 485.193 204.605C480.742 211.092 474.303 216.134 465.875 219.733C457.494 223.284 447.385 225.06 435.548 225.06C423.806 225.06 413.579 223.26 404.866 219.662C396.202 216.063 389.431 210.737 384.554 203.682C379.724 196.58 377.191 187.796 376.955 177.332H406.713C407.045 182.209 408.441 186.281 410.903 189.548C413.413 192.768 416.751 195.206 420.918 196.864C425.132 198.473 429.89 199.278 435.193 199.278C440.402 199.278 444.923 198.521 448.759 197.006C452.641 195.491 455.648 193.384 457.778 190.685C459.909 187.986 460.974 184.884 460.974 181.381C460.974 178.114 460.004 175.367 458.062 173.142C456.169 170.917 453.375 169.023 449.682 167.46C446.036 165.898 441.562 164.477 436.259 163.199L420.42 159.222C408.157 156.239 398.474 151.575 391.372 145.23C384.27 138.885 380.742 130.339 380.79 119.591C380.742 110.784 383.086 103.09 387.821 96.5085C392.603 89.9271 399.161 84.7898 407.494 81.0966C415.828 77.4034 425.297 75.5568 435.903 75.5568C446.699 75.5568 456.121 77.4034 464.17 81.0966C472.267 84.7898 478.564 89.9271 483.062 96.5085C487.561 103.09 489.881 110.713 490.023 119.378H460.548ZM570.154 113.909V136.636H504.458V113.909H570.154ZM519.373 87.7727H549.629V189.477C549.629 192.271 550.055 194.449 550.907 196.011C551.759 197.527 552.943 198.592 554.458 199.207C556.021 199.823 557.82 200.131 559.856 200.131C561.276 200.131 562.697 200.012 564.117 199.776C565.538 199.491 566.627 199.278 567.384 199.136L572.143 221.651C570.628 222.124 568.497 222.669 565.751 223.284C563.004 223.947 559.666 224.349 555.737 224.491C548.445 224.776 542.053 223.805 536.56 221.58C531.115 219.354 526.878 215.898 523.847 211.21C520.817 206.523 519.326 200.604 519.373 193.455V87.7727ZM659.82 176.551V113.909H690.076V223H661.028V203.185H659.891C657.429 209.577 653.334 214.714 647.604 218.597C641.923 222.479 634.986 224.42 626.795 224.42C619.503 224.42 613.087 222.763 607.548 219.449C602.008 216.134 597.675 211.423 594.55 205.315C591.473 199.207 589.91 191.892 589.863 183.369V113.909H620.119V177.972C620.166 184.411 621.894 189.501 625.303 193.241C628.712 196.982 633.281 198.852 639.011 198.852C642.656 198.852 646.066 198.024 649.238 196.366C652.41 194.662 654.967 192.152 656.908 188.838C658.897 185.524 659.868 181.428 659.82 176.551ZM754.476 224.776C746.19 224.776 738.685 222.645 731.962 218.384C725.286 214.075 719.982 207.754 716.053 199.42C712.17 191.04 710.229 180.765 710.229 168.597C710.229 156.097 712.241 145.704 716.266 137.418C720.29 129.084 725.641 122.858 732.317 118.739C739.04 114.572 746.403 112.489 754.405 112.489C760.513 112.489 765.603 113.53 769.675 115.614C773.794 117.65 777.108 120.206 779.618 123.284C782.175 126.314 784.116 129.297 785.442 132.233H786.365V77.5455H816.55V223H786.72V205.528H785.442C784.021 208.559 782.009 211.565 779.405 214.548C776.848 217.484 773.51 219.922 769.391 221.864C765.319 223.805 760.347 224.776 754.476 224.776ZM764.064 200.699C768.941 200.699 773.06 199.373 776.422 196.722C779.831 194.023 782.435 190.259 784.234 185.429C786.081 180.599 787.004 174.941 787.004 168.455C787.004 161.968 786.105 156.333 784.305 151.551C782.506 146.769 779.902 143.076 776.493 140.472C773.084 137.867 768.941 136.565 764.064 136.565C759.092 136.565 754.902 137.915 751.493 140.614C748.084 143.312 745.503 147.053 743.751 151.835C742 156.617 741.124 162.157 741.124 168.455C741.124 174.799 742 180.41 743.751 185.287C745.551 190.116 748.131 193.904 751.493 196.651C754.902 199.349 759.092 200.699 764.064 200.699ZM841.425 223V113.909H871.681V223H841.425ZM856.624 99.8466C852.126 99.8466 848.267 98.3551 845.048 95.3722C841.875 92.3419 840.289 88.7197 840.289 84.5057C840.289 80.339 841.875 76.7642 845.048 73.7812C848.267 70.7509 852.126 69.2358 856.624 69.2358C861.122 69.2358 864.958 70.7509 868.13 73.7812C871.35 76.7642 872.96 80.339 872.96 84.5057C872.96 88.7197 871.35 92.3419 868.13 95.3722C864.958 98.3551 861.122 99.8466 856.624 99.8466ZM945.207 225.131C934.175 225.131 924.634 222.787 916.585 218.099C908.583 213.365 902.404 206.783 898.048 198.355C893.692 189.88 891.514 180.055 891.514 168.881C891.514 157.612 893.692 147.763 898.048 139.335C902.404 130.86 908.583 124.278 916.585 119.591C924.634 114.856 934.175 112.489 945.207 112.489C956.24 112.489 965.757 114.856 973.759 119.591C981.808 124.278 988.01 130.86 992.366 139.335C996.723 147.763 998.901 157.612 998.901 168.881C998.901 180.055 996.723 189.88 992.366 198.355C988.01 206.783 981.808 213.365 973.759 218.099C965.757 222.787 956.24 225.131 945.207 225.131ZM945.349 201.693C950.368 201.693 954.559 200.273 957.92 197.432C961.282 194.544 963.815 190.614 965.52 185.642C967.272 180.67 968.148 175.012 968.148 168.668C968.148 162.323 967.272 156.665 965.52 151.693C963.815 146.722 961.282 142.792 957.92 139.903C954.559 137.015 950.368 135.571 945.349 135.571C940.283 135.571 936.022 137.015 932.565 139.903C929.156 142.792 926.576 146.722 924.824 151.693C923.119 156.665 922.267 162.323 922.267 168.668C922.267 175.012 923.119 180.67 924.824 185.642C926.576 190.614 929.156 194.544 932.565 197.432C936.022 200.273 940.283 201.693 945.349 201.693Z" fill="black"/>
<rect width="300" height="300" rx="60" fill="black"/>
<mask id="mask0_22_2" style="mask-type:alpha" maskUnits="userSpaceOnUse" x="0" y="0" width="300" height="300">
<rect width="300" height="300" rx="60" fill="black"/>
</mask>
<g mask="url(#mask0_22_2)">
<path d="M108.077 147.983C91.6705 147.983 77.0753 145.32 64.2912 139.993C51.5781 134.595 41.5994 127.244 34.3551 117.94C27.1108 108.636 23.4886 98.0895 23.4886 86.2997C23.4886 77.2088 25.5483 68.8636 29.6676 61.2642C33.858 53.5938 39.5398 47.2372 46.7131 42.1946C53.8864 37.081 61.9119 33.8139 70.7898 32.3935V30.902C59.142 28.5582 49.696 22.9119 42.4517 13.9631C35.2074 4.94318 31.5852 -5.53267 31.5852 -17.4645C31.5852 -28.7571 34.8878 -38.8068 41.4929 -47.6136C48.098 -56.4915 57.1534 -63.4517 68.6591 -68.4943C80.2358 -73.608 93.375 -76.1648 108.077 -76.1648C122.778 -76.1648 135.882 -73.608 147.388 -68.4943C158.964 -63.3807 168.055 -56.3849 174.661 -47.5071C181.266 -38.7003 184.604 -28.6861 184.675 -17.4645C184.604 -5.46165 180.911 5.0142 173.595 13.9631C166.28 22.9119 156.905 28.5582 145.47 30.902V32.3935C154.206 33.8139 162.125 37.081 169.227 42.1946C176.401 47.2372 182.082 53.5938 186.273 61.2642C190.534 68.8636 192.7 77.2088 192.771 86.2997C192.7 98.0895 189.043 108.636 181.798 117.94C174.554 127.244 164.54 134.595 151.756 139.993C139.043 145.32 124.483 147.983 108.077 147.983ZM108.077 114.105C115.392 114.105 121.784 112.791 127.253 110.163C132.722 107.464 136.983 103.771 140.037 99.0838C143.162 94.3253 144.724 88.8565 144.724 82.6776C144.724 76.3565 143.126 70.7812 139.93 65.9517C136.734 61.0511 132.402 57.2159 126.933 54.446C121.464 51.6051 115.179 50.1847 108.077 50.1847C101.045 50.1847 94.7599 51.6051 89.2202 54.446C83.6804 57.2159 79.3125 61.0511 76.1165 65.9517C72.9915 70.7812 71.429 76.3565 71.429 82.6776C71.429 88.8565 72.956 94.3253 76.0099 99.0838C79.0639 103.771 83.3608 107.464 88.9006 110.163C94.4403 112.791 100.832 114.105 108.077 114.105ZM108.077 16.6264C114.185 16.6264 119.618 15.3835 124.376 12.8977C129.135 10.4119 132.864 6.96733 135.562 2.56392C138.261 -1.83949 139.611 -6.91762 139.611 -12.6705C139.611 -18.3523 138.261 -23.3239 135.562 -27.5852C132.864 -31.9176 129.17 -35.2912 124.483 -37.706C119.795 -40.1918 114.327 -41.4347 108.077 -41.4347C101.898 -41.4347 96.429 -40.1918 91.6705 -37.706C86.9119 -35.2912 83.1832 -31.9176 80.4844 -27.5852C77.8565 -23.3239 76.5426 -18.3523 76.5426 -12.6705C76.5426 -6.91762 77.892 -1.83949 80.5909 2.56392C83.2898 6.96733 87.0185 10.4119 91.777 12.8977C96.5355 15.3835 101.969 16.6264 108.077 16.6264Z" fill="white"/>
<path d="M126.685 363V329.761L204.348 257.851C210.953 251.459 216.493 245.706 220.967 240.592C225.513 235.479 228.957 230.472 231.301 225.571C233.645 220.599 234.817 215.237 234.817 209.484C234.817 203.092 233.361 197.588 230.449 192.972C227.537 188.284 223.56 184.697 218.517 182.212C213.474 179.655 207.757 178.376 201.365 178.376C194.689 178.376 188.865 179.726 183.893 182.425C178.922 185.124 175.087 188.994 172.388 194.037C169.689 199.08 168.339 205.081 168.339 212.041H124.554C124.554 197.766 127.786 185.372 134.249 174.861C140.712 164.349 149.767 156.217 161.415 150.464C173.063 144.712 186.486 141.835 201.685 141.835C217.31 141.835 230.911 144.605 242.487 150.145C254.135 155.614 263.19 163.213 269.653 172.943C276.116 182.673 279.348 193.824 279.348 206.395C279.348 214.634 277.714 222.766 274.447 230.791C271.251 238.817 265.534 247.73 257.295 257.531C249.057 267.261 237.445 278.945 222.459 292.581L190.605 323.795V325.287H282.224V363H126.685Z" fill="white"/>
</g>
</svg>
