<svg width="300" height="300" viewBox="0 0 300 300" fill="none" xmlns="http://www.w3.org/2000/svg">
<rect width="300" height="300" rx="60" fill="black"/>
<mask id="mask0_22_2" style="mask-type:alpha" maskUnits="userSpaceOnUse" x="0" y="0" width="300" height="300">
<rect width="300" height="300" rx="60" fill="black"/>
</mask>
<g mask="url(#mask0_22_2)">
<path d="M108.077 147.983C91.6705 147.983 77.0753 145.32 64.2912 139.993C51.5781 134.595 41.5994 127.244 34.3551 117.94C27.1108 108.636 23.4886 98.0895 23.4886 86.2997C23.4886 77.2088 25.5483 68.8636 29.6676 61.2642C33.858 53.5938 39.5398 47.2372 46.7131 42.1946C53.8864 37.081 61.9119 33.8139 70.7898 32.3935V30.902C59.142 28.5582 49.696 22.9119 42.4517 13.9631C35.2074 4.94318 31.5852 -5.53267 31.5852 -17.4645C31.5852 -28.7571 34.8878 -38.8068 41.4929 -47.6136C48.098 -56.4915 57.1534 -63.4517 68.6591 -68.4943C80.2358 -73.608 93.375 -76.1648 108.077 -76.1648C122.778 -76.1648 135.882 -73.608 147.388 -68.4943C158.964 -63.3807 168.055 -56.3849 174.661 -47.5071C181.266 -38.7003 184.604 -28.6861 184.675 -17.4645C184.604 -5.46165 180.911 5.0142 173.595 13.9631C166.28 22.9119 156.905 28.5582 145.47 30.902V32.3935C154.206 33.8139 162.125 37.081 169.227 42.1946C176.401 47.2372 182.082 53.5938 186.273 61.2642C190.534 68.8636 192.7 77.2088 192.771 86.2997C192.7 98.0895 189.043 108.636 181.798 117.94C174.554 127.244 164.54 134.595 151.756 139.993C139.043 145.32 124.483 147.983 108.077 147.983ZM108.077 114.105C115.392 114.105 121.784 112.791 127.253 110.163C132.722 107.464 136.983 103.771 140.037 99.0838C143.162 94.3253 144.724 88.8565 144.724 82.6776C144.724 76.3565 143.126 70.7812 139.93 65.9517C136.734 61.0511 132.402 57.2159 126.933 54.446C121.464 51.6051 115.179 50.1847 108.077 50.1847C101.045 50.1847 94.7599 51.6051 89.2202 54.446C83.6804 57.2159 79.3125 61.0511 76.1165 65.9517C72.9915 70.7812 71.429 76.3565 71.429 82.6776C71.429 88.8565 72.956 94.3253 76.0099 99.0838C79.0639 103.771 83.3608 107.464 88.9006 110.163C94.4403 112.791 100.832 114.105 108.077 114.105ZM108.077 16.6264C114.185 16.6264 119.618 15.3835 124.376 12.8977C129.135 10.4119 132.864 6.96733 135.562 2.56392C138.261 -1.83949 139.611 -6.91762 139.611 -12.6705C139.611 -18.3523 138.261 -23.3239 135.562 -27.5852C132.864 -31.9176 129.17 -35.2912 124.483 -37.706C119.795 -40.1918 114.327 -41.4347 108.077 -41.4347C101.898 -41.4347 96.429 -40.1918 91.6705 -37.706C86.9119 -35.2912 83.1832 -31.9176 80.4844 -27.5852C77.8565 -23.3239 76.5426 -18.3523 76.5426 -12.6705C76.5426 -6.91762 77.892 -1.83949 80.5909 2.56392C83.2898 6.96733 87.0185 10.4119 91.777 12.8977C96.5355 15.3835 101.969 16.6264 108.077 16.6264Z" fill="white"/>
<path d="M126.685 363V329.761L204.348 257.851C210.953 251.459 216.493 245.706 220.967 240.592C225.513 235.479 228.957 230.472 231.301 225.571C233.645 220.599 234.817 215.237 234.817 209.484C234.817 203.092 233.361 197.588 230.449 192.972C227.537 188.284 223.56 184.697 218.517 182.212C213.474 179.655 207.757 178.376 201.365 178.376C194.689 178.376 188.865 179.726 183.893 182.425C178.922 185.124 175.087 188.994 172.388 194.037C169.689 199.08 168.339 205.081 168.339 212.041H124.554C124.554 197.766 127.786 185.372 134.249 174.861C140.712 164.349 149.767 156.217 161.415 150.464C173.063 144.712 186.486 141.835 201.685 141.835C217.31 141.835 230.911 144.605 242.487 150.145C254.135 155.614 263.19 163.213 269.653 172.943C276.116 182.673 279.348 193.824 279.348 206.395C279.348 214.634 277.714 222.766 274.447 230.791C271.251 238.817 265.534 247.73 257.295 257.531C249.057 267.261 237.445 278.945 222.459 292.581L190.605 323.795V325.287H282.224V363H126.685Z" fill="white"/>
</g>
</svg>
